#!OML:ASF F:\VICON\USERDATA\INSTALL\rory3\rory3.ASF
:FULLY-SPECIFIED
:DEGREES
262
root 0.353449 16.7258 1.65843 10.5055 -4.34899 -1.71479
lowerback -5.17259 2.43539 3.17888
upperback -4.2111 3.12038 -1.58345
thorax -1.18644 1.4754 -3.2793
lowerneck -16.6924 0.309185 -0.391758
upperneck 40.3537 0.882915 -0.418012
head 17.748 0.241882 0.0515344
rclavicle 1.01598e-014 3.57812e-015
rhumerus -37.7058 -6.97268 -77.2072
rradius 31.4457
rwrist -12.8989
rhand -5.6594 13.293
rfingers 7.12502
rthumb 20.1597 -15.681
lclavicle 1.01598e-014 3.57812e-015
lhumerus -62.0558 32.0716 40.8105
lradius 25.5261
lwrist -6.09473
lhand -1.71949 21.7159
lfingers 7.12502
lthumb 23.9424 50.2431
rfemur 11.1144 14.7237 27.2359
rtibia 11.8364
rfoot -6.60004 -15.2699
rtoes -17.4966
lfemur -37.2135 -7.61589 -16.6683
ltibia 28.1586
lfoot -13.0438 20.3631
ltoes -7.17483
263
root 0.367632 16.7296 1.83135 10.4344 -4.27497 -1.10287
lowerback -5.22359 2.34903 2.46844
upperback -4.30159 3.02851 -1.80446
thorax -1.28084 1.43913 -3.11392
lowerneck -16.8275 0.244914 -0.492475
upperneck 40.5469 0.724993 -0.189245
head 17.8933 0.193411 0.145144
rclavicle -7.22831e-014 1.39149e-014
rhumerus -37.9789 -7.5602 -77.0335
rradius 30.7666
rwrist -12.2541
rhand -5.56058 13.1489
rfingers 7.12502
rthumb 20.2547 -15.815
lclavicle -7.22831e-014 1.39149e-014
lhumerus -61.6527 32.4945 40.506
lradius 25.3574
lwrist -6.01645
lhand -2.11541 22.1376
lfingers 7.12502
lthumb 23.5627 50.7141
rfemur 10.4149 14.1757 26.4873
rtibia 13.9761
rfoot -6.17188 -14.7597
rtoes -18.3875
lfemur -36.8787 -7.02513 -17.898
ltibia 28.7602
lfoot -12.1517 19.634
ltoes -8.74673
264
root 0.383756 16.728 2.0117 10.2836 -4.03368 -0.422796
lowerback -5.46769 2.17743 1.72484
upperback -4.28646 2.82252 -2.00957
thorax -1.16743 1.35125 -2.90796
lowerneck -16.8239 0.240498 -0.483165
upperneck 40.7087 0.679855 -0.107557
head 17.9862 0.186844 0.172653
rclavicle 2.6662e-014 -7.55382e-015
rhumerus -38.397 -8.20978 -76.7643
rradius 30.3076
rwrist -11.3778
rhand -5.33432 13.4453
rfingers 7.12502
rthumb 20.4722 -15.4954
lclavicle 2.6662e-014 -7.55382e-015
lhumerus -61.4621 33.2885 39.7695
lradius 25.0567
lwrist -6.54397
lhand -2.38339 22.1586
lfingers 7.12502
lthumb 23.3056 50.768
rfemur 9.58279 13.139 25.6207
rtibia 16.4785
rfoot -5.85169 -14.106
rtoes -19.3549
lfemur -36.2619 -6.99741 -19.0384
ltibia 29.132
lfoot -11.954 19.1093
ltoes -8.52865
265
root 0.398077 16.7216 2.18739 10.0914 -3.88726 0.457351
lowerback -5.67516 2.07037 0.839132
upperback -4.28586 2.71276 -2.34695
thorax -1.08156 1.31177 -2.75655
lowerneck -16.7255 0.189507 -0.599711
upperneck 40.9322 0.530265 0.160716
head 18.0896 0.145623 0.289811
rclavicle -1.05045e-014 1.78906e-014
rhumerus -38.8095 -9.07498 -76.5156
rradius 29.6343
rwrist -10.4286
rhand -5.47232 13.7205
rfingers 7.12502
rthumb 20.3395 -15.2344
lclavicle -1.05045e-014 1.78906e-014
lhumerus -60.7537 33.3464 39.9934
lradius 25.0591
lwrist -6.22634
lhand -2.65049 22.0173
lfingers 7.12502
lthumb 23.0494 50.6589
rfemur 8.639 12.1235 24.498
rtibia 19.1238
rfoot -5.56385 -13.4477
rtoes -19.2169
lfemur -35.4877 -7.11496 -20.3281
ltibia 29.3179
lfoot -12.0509 18.7637
ltoes -7.01005
266
root 0.411028 16.7249 2.35756 9.96148 -3.92093 1.24182
lowerback -5.73699 2.0515 0.0610324
upperback -4.45535 2.71513 -2.7009
thorax -1.24083 1.32274 -2.68757
lowerneck -16.3593 0.126351 -0.669352
upperneck 41.1102 0.373574 0.354556
head 18.0961 0.0988274 0.361879
rclavicle 2.24627e-014 -1.39149e-014
rhumerus -39.3651 -9.94771 -76.2165
rradius 28.6734
rwrist -9.59787
rhand -5.84841 14.0754
rfingers 7.12502
rthumb 19.9781 -14.9176
lclavicle 2.24627e-014 -1.39149e-014
lhumerus -60.0344 32.9468 40.4326
lradius 25.2615
lwrist -5.71846
lhand -2.81817 21.7631
lfingers 7.12502
lthumb 22.8885 50.4247
rfemur 7.47776 11.4076 23.4527
rtibia 21.8413
rfoot -4.73128 -12.936
rtoes -18.1302
lfemur -34.792 -7.06642 -21.4628
ltibia 29.4446
lfoot -12.1505 18.4251
ltoes -6.54437
